<svg width="443" height="356" viewBox="0 0 443 356" fill="none" xmlns="http://www.w3.org/2000/svg">
<path opacity="0.7" d="M369.235 179.675C362.006 179.675 355.537 178.153 350.591 174.348C345.645 170.544 341.459 164.456 341.459 156.085C341.459 147.714 345.645 141.246 350.591 137.821C357.82 132.495 366.572 132.495 372.659 132.495H384.835C384.835 127.548 384.835 121.08 381.03 116.894C378.367 113.851 374.562 112.329 368.474 112.329C361.625 112.329 354.776 113.851 348.308 116.514L344.884 106.621C352.113 103.958 360.103 102.055 368.474 102.055C377.606 102.055 384.835 105.099 389.401 110.426C390.542 111.568 391.303 113.09 392.064 114.612C391.684 110.426 390.923 106.241 390.162 102.055C389.02 96.7285 387.879 91.7821 386.357 86.8358C374.181 77.704 259.654 -5.6233 193.449 113.47C177.468 142.007 161.868 161.792 147.029 174.729C159.204 180.436 172.141 187.285 186.219 195.656C330.425 281.647 375.703 208.593 385.216 187.285C386.737 182.719 387.879 178.153 389.02 173.587C384.455 177.012 377.986 179.675 369.235 179.675ZM254.327 174.348C249.381 177.773 243.673 179.295 236.444 179.295C228.073 179.295 219.322 177.392 211.712 173.587L215.897 164.075C222.366 167.119 229.215 168.641 236.444 168.641C241.01 168.641 244.815 167.88 247.859 165.597C250.903 163.314 252.044 160.27 252.044 157.607C252.044 153.802 250.142 150.758 247.859 148.856C244.054 146.573 240.249 145.431 235.302 144.29C230.356 143.148 224.649 141.626 220.083 138.202C215.517 134.397 211.712 128.69 211.712 121.841C211.712 114.612 215.517 108.904 220.083 105.86C224.649 102.816 229.976 101.294 236.444 101.294C244.434 101.294 252.044 103.197 258.893 106.621L254.707 116.514C249 113.47 242.532 111.948 236.063 111.948C232.259 111.948 229.595 112.709 226.932 114.231C224.268 115.753 222.366 118.797 222.366 122.221C222.366 125.646 223.888 128.309 226.171 130.212C229.215 132.875 232.639 133.636 237.966 134.777C243.673 135.919 248.62 137.441 252.805 140.865C257.751 144.29 261.937 150.378 261.937 158.368C262.698 164.836 259.273 170.924 254.327 174.348ZM288.952 162.173C291.995 166.358 296.942 169.022 304.552 169.022C311.02 169.022 317.869 167.5 323.196 164.456L327.762 173.968C320.532 177.773 312.542 179.675 304.552 179.675C293.898 179.675 285.527 175.49 280.581 168.641C274.493 160.27 274.493 150.758 274.493 140.485C274.493 127.929 274.493 120.699 280.2 112.709C285.147 105.48 294.278 101.294 305.313 101.294C312.922 101.294 319.391 103.197 323.957 107.382C328.523 111.568 331.566 117.275 331.566 123.363C331.566 130.212 328.142 135.919 323.957 138.963C317.488 143.909 311.02 143.909 299.986 143.909H285.908C285.147 147.714 285.147 157.226 288.952 162.173Z" fill="white"/>
<path opacity="0.7" d="M357.058 145.051C354.395 146.954 352.112 150.759 352.112 155.705C352.112 160.271 354.395 163.695 357.058 165.598C360.102 167.5 364.287 168.642 369.234 168.642C374.941 168.642 379.507 167.5 382.171 164.076C385.214 160.651 385.214 155.705 385.214 146.193V141.627H372.658C366.951 142.007 361.624 142.007 357.058 145.051Z" fill="white"/>
<path opacity="0.7" d="M316.722 131.356C318.624 129.834 320.527 127.171 320.527 123.366C320.527 120.322 319.005 117.278 316.341 115.376C313.678 113.093 309.873 111.951 304.927 111.951C298.078 111.951 292.37 113.854 288.946 118.039C285.141 122.605 285.141 130.595 285.141 134.02H299.219C309.112 133.639 313.678 133.639 316.722 131.356Z" fill="white"/>
<path opacity="0.6" d="M147.405 173.589C88.81 146.574 52.2829 147.716 50 147.716C50 149.238 50.3805 150.76 50.3805 152.282C51.1415 157.989 51.9024 163.696 53.0439 169.404C54.5659 176.253 56.4683 183.101 58.7513 189.57C58.7513 189.189 58.7513 189.189 58.7513 189.189C58.7513 189.189 97.5612 218.107 147.405 173.589Z" fill="white"/>
<path opacity="0.49" d="M186.599 194.517C172.52 186.146 159.584 179.297 147.408 173.59C97.5639 218.107 58.7539 189.19 58.7539 189.19C58.7539 189.19 58.7539 189.19 58.7539 189.57C81.9638 257.298 145.886 306 221.604 306C298.463 306 363.526 255.776 385.595 186.146C376.082 207.453 330.804 280.508 186.599 194.517Z" fill="white"/>
<path d="M186.599 194.517C172.52 186.146 159.584 179.297 147.408 173.59C97.5639 218.107 58.7539 189.19 58.7539 189.19C58.7539 189.19 58.7539 189.19 58.7539 189.57C81.9638 257.298 145.886 306 221.604 306C298.463 306 363.526 255.776 385.595 186.146C376.082 207.453 330.804 280.508 186.599 194.517Z" fill="white"/>
<g filter="url(#filter0_f)">
<path opacity="0.7" d="M369.235 179.675C362.006 179.675 355.537 178.153 350.591 174.348C345.645 170.544 341.459 164.456 341.459 156.085C341.459 147.714 345.645 141.246 350.591 137.821C357.82 132.495 366.572 132.495 372.659 132.495H384.835C384.835 127.548 384.835 121.08 381.03 116.894C378.367 113.851 374.562 112.329 368.474 112.329C361.625 112.329 354.776 113.851 348.308 116.514L344.884 106.621C352.113 103.958 360.103 102.055 368.474 102.055C377.606 102.055 384.835 105.099 389.401 110.426C390.542 111.568 391.303 113.09 392.064 114.612C391.684 110.426 390.923 106.241 390.162 102.055C389.02 96.7285 387.879 91.7821 386.357 86.8358C374.181 77.704 259.654 -5.6233 193.449 113.47C177.468 142.007 161.868 161.792 147.029 174.729C159.204 180.436 172.141 187.285 186.219 195.656C330.425 281.647 375.703 208.593 385.216 187.285C386.737 182.719 387.879 178.153 389.02 173.587C384.455 177.012 377.986 179.675 369.235 179.675ZM254.327 174.348C249.381 177.773 243.673 179.295 236.444 179.295C228.073 179.295 219.322 177.392 211.712 173.587L215.897 164.075C222.366 167.119 229.215 168.641 236.444 168.641C241.01 168.641 244.815 167.88 247.859 165.597C250.903 163.314 252.044 160.27 252.044 157.607C252.044 153.802 250.142 150.758 247.859 148.856C244.054 146.573 240.249 145.431 235.302 144.29C230.356 143.148 224.649 141.626 220.083 138.202C215.517 134.397 211.712 128.69 211.712 121.841C211.712 114.612 215.517 108.904 220.083 105.86C224.649 102.816 229.976 101.294 236.444 101.294C244.434 101.294 252.044 103.197 258.893 106.621L254.707 116.514C249 113.47 242.532 111.948 236.063 111.948C232.259 111.948 229.595 112.709 226.932 114.231C224.268 115.753 222.366 118.797 222.366 122.221C222.366 125.646 223.888 128.309 226.171 130.212C229.215 132.875 232.639 133.636 237.966 134.777C243.673 135.919 248.62 137.441 252.805 140.865C257.751 144.29 261.937 150.378 261.937 158.368C262.698 164.836 259.273 170.924 254.327 174.348ZM288.952 162.173C291.995 166.358 296.942 169.022 304.552 169.022C311.02 169.022 317.869 167.5 323.196 164.456L327.762 173.968C320.532 177.773 312.542 179.675 304.552 179.675C293.898 179.675 285.527 175.49 280.581 168.641C274.493 160.27 274.493 150.758 274.493 140.485C274.493 127.929 274.493 120.699 280.2 112.709C285.147 105.48 294.278 101.294 305.313 101.294C312.922 101.294 319.391 103.197 323.957 107.382C328.523 111.568 331.566 117.275 331.566 123.363C331.566 130.212 328.142 135.919 323.957 138.963C317.488 143.909 311.02 143.909 299.986 143.909H285.908C285.147 147.714 285.147 157.226 288.952 162.173Z" fill="white" fill-opacity="0.8"/>
<path opacity="0.7" d="M357.058 145.051C354.395 146.954 352.112 150.759 352.112 155.705C352.112 160.271 354.395 163.695 357.058 165.598C360.102 167.5 364.287 168.642 369.234 168.642C374.941 168.642 379.507 167.5 382.171 164.076C385.214 160.651 385.214 155.705 385.214 146.193V141.627H372.658C366.951 142.007 361.624 142.007 357.058 145.051Z" fill="white" fill-opacity="0.8"/>
<path opacity="0.7" d="M316.722 131.356C318.624 129.834 320.527 127.171 320.527 123.366C320.527 120.322 319.005 117.278 316.341 115.376C313.678 113.093 309.873 111.951 304.927 111.951C298.078 111.951 292.37 113.854 288.946 118.039C285.141 122.605 285.141 130.595 285.141 134.02H299.219C309.112 133.639 313.678 133.639 316.722 131.356Z" fill="white" fill-opacity="0.8"/>
<path opacity="0.6" d="M147.405 173.589C88.81 146.574 52.2829 147.716 50 147.716C50 149.238 50.3805 150.76 50.3805 152.282C51.1415 157.989 51.9024 163.696 53.0439 169.404C54.5659 176.253 56.4683 183.101 58.7513 189.57C58.7513 189.189 58.7513 189.189 58.7513 189.189C58.7513 189.189 97.5612 218.107 147.405 173.589Z" fill="white" fill-opacity="0.8"/>
<path opacity="0.49" d="M186.599 194.517C172.52 186.146 159.584 179.297 147.408 173.59C97.5639 218.107 58.7539 189.19 58.7539 189.19C58.7539 189.19 58.7539 189.19 58.7539 189.57C81.9638 257.298 145.886 306 221.604 306C298.463 306 363.526 255.776 385.595 186.146C376.082 207.453 330.804 280.508 186.599 194.517Z" fill="white" fill-opacity="0.8"/>
<path d="M186.599 194.517C172.52 186.146 159.584 179.297 147.408 173.59C97.5639 218.107 58.7539 189.19 58.7539 189.19C58.7539 189.19 58.7539 189.19 58.7539 189.57C81.9638 257.298 145.886 306 221.604 306C298.463 306 363.526 255.776 385.595 186.146C376.082 207.453 330.804 280.508 186.599 194.517Z" fill="white" fill-opacity="0.8"/>
</g>
<defs>
<filter id="filter0_f" x="0" y="0" width="442.064" height="356" filterUnits="userSpaceOnUse" color-interpolation-filters="sRGB">
<feFlood flood-opacity="0" result="BackgroundImageFix"/>
<feBlend mode="normal" in="SourceGraphic" in2="BackgroundImageFix" result="shape"/>
<feGaussianBlur stdDeviation="25" result="effect1_foregroundBlur"/>
</filter>
</defs>
</svg>
